<?xml version="1.0" encoding="UTF-8" standalone="no"?>
<svg
   xmlns:dc="http://purl.org/dc/elements/1.1/"
   xmlns:cc="http://creativecommons.org/ns#"
   xmlns:rdf="http://www.w3.org/1999/02/22-rdf-syntax-ns#"
   xmlns:svg="http://www.w3.org/2000/svg"
   xmlns="http://www.w3.org/2000/svg"
   viewBox="0 0 680.67334 289.98532"
   height="289.98532"
   width="680.67334"
   xml:space="preserve"
   id="svg2"
   version="1.1"><metadata
     id="metadata8"><rdf:RDF><cc:Work
         rdf:about=""><dc:format>image/svg+xml</dc:format><dc:type
           rdf:resource="http://purl.org/dc/dcmitype/StillImage" /></cc:Work></rdf:RDF></metadata><defs
     id="defs6"><clipPath
       id="clipPath18"
       clipPathUnits="userSpaceOnUse"><path
         id="path16"
         d="M 0,217.489 H 510.505 V 0 H 0 Z" /></clipPath></defs><g
     transform="matrix(1.3333333,0,0,-1.3333333,0,289.98533)"
     id="g10"><g
       id="g12"><g
         clip-path="url(#clipPath18)"
         id="g14"><g
           transform="translate(44.1948,131.036)"
           id="g20"><path
             id="path22"
             style="fill:#ff0000;fill-opacity:1;fill-rule:nonzero;stroke:none"
             d="m 0,0 c 6.394,0 10.87,-2.267 13.312,-3.952 1.629,-1.163 1.744,-2.732 0.697,-4.418 l -1.453,-2.382 c -1.104,-1.804 -2.558,-1.979 -4.359,-0.872 -1.919,1.103 -4.652,2.323 -7.731,2.323 -8.313,0 -11.743,-5.871 -11.743,-11.858 0,-6.162 3.72,-12.497 11.743,-12.497 3.486,0 6.509,1.57 8.485,2.964 1.744,1.22 3.257,1.163 4.477,-0.581 l 1.628,-2.267 c 1.104,-1.629 1.045,-3.255 -0.524,-4.477 -2.615,-2.035 -7.498,-4.94 -14.532,-4.94 -13.371,0 -21.8,9.242 -21.8,21.566 C -21.8,-9.301 -12.846,0 0,0" /></g><g
           transform="translate(67.2234,127.1431)"
           id="g24"><path
             id="path26"
             style="fill:#ff0000;fill-opacity:1;fill-rule:nonzero;stroke:none"
             d="M 0,0 C 0,2.092 1.106,3.196 3.198,3.196 H 6.975 C 9.069,3.196 10.173,2.092 10.173,0 V -13.43 H 25.288 V 0 c 0,2.092 1.104,3.196 3.196,3.196 h 3.78 c 2.091,0 3.195,-1.104 3.195,-3.196 v -35.171 c 0,-2.092 -1.104,-3.196 -3.195,-3.196 h -3.78 c -2.092,0 -3.196,1.104 -3.196,3.196 v 13.08 H 10.173 v -13.08 c 0,-2.092 -1.104,-3.196 -3.198,-3.196 H 3.198 C 1.106,-38.367 0,-37.263 0,-35.171 Z" /></g><g
           transform="translate(112.3447,127.1431)"
           id="g28"><path
             id="path30"
             style="fill:#ff0000;fill-opacity:1;fill-rule:nonzero;stroke:none"
             d="m 0,0 c 0,2.092 1.104,3.196 3.196,3.196 h 3.779 c 2.092,0 3.196,-1.104 3.196,-3.196 v -23.079 c 0,-4.36 2.85,-6.684 7.209,-6.684 4.361,0 7.209,2.324 7.209,6.684 V 0 c 0,2.092 1.104,3.196 3.196,3.196 h 3.779 c 2.092,0 3.198,-1.104 3.198,-3.196 v -23.079 c 0,-9.36 -6.859,-15.985 -17.323,-15.985 C 6.859,-39.064 0,-32.439 0,-23.079 Z" /></g><g
           transform="translate(171.9387,110.3424)"
           id="g32"><path
             id="path34"
             style="fill:#ff0000;fill-opacity:1;fill-rule:nonzero;stroke:none"
             d="m 0,0 c 3.545,0 5.29,2.383 5.29,5.696 0,3.314 -1.745,5.581 -5.117,5.581 H -4.999 V 0 Z m -15.172,16.801 c 0,2.092 1.104,3.195 3.195,3.195 H 2.092 c 8.081,0 13.544,-5.928 13.544,-14.3 0,-8.369 -5.463,-14.415 -13.544,-14.415 h -7.091 v -9.651 c 0,-2.092 -1.106,-3.196 -3.198,-3.196 h -3.78 c -2.091,0 -3.195,1.104 -3.195,3.196 z" /></g><g
           transform="translate(211.7066,105.634)"
           id="g36"><path
             id="path38"
             style="fill:#ff0000;fill-opacity:1;fill-rule:nonzero;stroke:none"
             d="m 0,0 -2.324,8.079 c -0.756,2.616 -1.685,7.15 -1.685,7.15 h -0.118 c 0,0 -0.929,-4.534 -1.685,-7.15 L -8.195,0 Z m -10.289,22.091 c 0.582,1.801 1.744,2.614 3.605,2.614 h 5.233 c 1.86,0 3.023,-0.813 3.602,-2.614 l 12.033,-35.287 c 0.757,-2.208 -0.291,-3.661 -2.614,-3.661 H 7.731 c -1.86,0 -3.02,0.872 -3.602,2.673 L 2.385,-8.138 H -10.58 l -1.742,-6.046 c -0.524,-1.801 -1.687,-2.673 -3.547,-2.673 h -3.837 c -2.325,0 -3.37,1.453 -2.616,3.661 z" /></g><g
           transform="translate(362.3948,109.209)"
           id="g40"><path
             id="path42"
             style="fill:#2a2031;fill-opacity:1;fill-rule:nonzero;stroke:none"
             d="M 0,0 C 0,2.347 -1.903,4.25 -4.25,4.25 -6.597,4.25 -8.5,2.347 -8.5,0 c 0,-2.347 1.903,-4.25 4.25,-4.25 C -1.903,-4.25 0,-2.347 0,0" /></g><g
           transform="translate(246.4999,108.7492)"
           id="g44"><path
             id="path46"
             style="fill:#2a2031;fill-opacity:1;fill-rule:nonzero;stroke:none"
             d="m 0,0 c 5.543,0 9.14,3.36 9.14,9.022 0,5.602 -3.597,8.844 -9.081,8.844 H -9.729 V 0 Z m -13.798,20.048 c 0,0.943 0.473,1.474 1.416,1.474 H 0.531 c 7.43,0 12.796,-4.835 12.796,-12.5 0,-7.725 -5.366,-12.678 -12.796,-12.678 h -10.26 v -14.799 c 0,-0.943 -0.529,-1.475 -1.415,-1.475 h -1.238 c -0.943,0 -1.416,0.532 -1.416,1.475 z" /></g><g
           transform="translate(283.412,109.9284)"
           id="g48"><path
             id="path50"
             style="fill:#2a2031;fill-opacity:1;fill-rule:nonzero;stroke:none"
             d="m 0,0 c 5.012,0 8.197,3.478 8.197,8.667 0,3.304 -1.593,6.016 -4.364,7.255 -1.179,0.529 -2.418,0.765 -5.424,0.765 H -9.847 L -9.847,0 Z m -13.916,18.868 c 0,0.943 0.473,1.475 1.416,1.475 h 11.203 c 3.892,0 5.897,-0.413 7.547,-1.179 3.715,-1.77 6.132,-5.366 6.132,-10.378 0,-5.601 -3.183,-10.142 -7.841,-11.44 v -0.118 c 0,0 0.412,-0.529 1.061,-1.649 l 8.077,-14.977 c 0.532,-1.004 0.119,-1.711 -1.002,-1.711 h -1.533 c -0.825,0 -1.354,0.355 -1.709,1.002 L 0.591,-3.656 H -9.847 v -15.978 c 0,-0.943 -0.529,-1.475 -1.415,-1.475 H -12.5 c -0.943,0 -1.416,0.532 -1.416,1.475 z" /></g><g
           transform="translate(307.4715,128.7968)"
           id="g52"><path
             id="path54"
             style="fill:#2a2031;fill-opacity:1;fill-rule:nonzero;stroke:none"
             d="m 0,0 c 0,0.943 0.472,1.474 1.415,1.474 h 20.461 c 0.943,0 1.475,-0.531 1.475,-1.474 v -0.707 c 0,-0.943 -0.532,-1.474 -1.475,-1.474 H 4.069 v -15.095 h 14.27 c 0.943,0 1.474,-0.472 1.474,-1.415 v -0.766 c 0,-0.945 -0.531,-1.475 -1.474,-1.475 H 4.069 v -15.39 h 18.868 c 0.943,0 1.475,-0.529 1.475,-1.474 v -0.707 c 0,-0.943 -0.532,-1.474 -1.475,-1.474 H 1.415 C 0.472,-39.977 0,-39.446 0,-38.503 Z" /></g><g
           transform="translate(397.7148,128.4603)"
           id="g56"><path
             id="path58"
             style="fill:#2a2031;fill-opacity:1;fill-rule:nonzero;stroke:none"
             d="M 0,0 C 0,0.943 0.472,1.474 1.415,1.474 H 2.654 C 3.539,1.474 4.069,0.943 4.069,0 v -38.503 c 0,-0.943 -0.53,-1.474 -1.415,-1.474 H 1.415 C 0.472,-39.977 0,-39.446 0,-38.503 Z" /></g><g
           transform="translate(433.684,91.6092)"
           id="g60"><path
             id="path62"
             style="fill:#2a2031;fill-opacity:1;fill-rule:nonzero;stroke:none"
             d="m 0,0 c 9.729,0 16.863,7.782 16.863,17.865 0,9.846 -7.134,17.336 -16.863,17.336 -9.669,0 -16.864,-7.49 -16.864,-17.336 C -16.864,7.782 -9.669,0 0,0 m 0,39.032 c 12.146,0 21.109,-9.256 21.109,-21.167 C 21.109,5.719 12.146,-3.833 0,-3.833 c -12.089,0 -21.109,9.552 -21.109,21.698 0,11.911 9.02,21.167 21.109,21.167" /></g><g
           transform="translate(463.1668,94.2018)"
           id="g64"><path
             id="path66"
             style="fill:#2a2031;fill-opacity:1;fill-rule:nonzero;stroke:none"
             d="m 0,0 0.709,0.886 c 0.588,0.707 1.238,0.766 2.063,0.177 1.415,-1.179 4.893,-3.598 9.553,-3.598 4.953,0 8.431,2.771 8.431,7.076 0,10.438 -20.638,7.961 -20.638,20.814 0,6.781 5.721,11.085 12.973,11.085 4.953,0 8.549,-2.063 10.083,-3.243 0.706,-0.531 0.824,-1.179 0.354,-1.944 l -0.532,-0.945 c -0.529,-0.884 -1.297,-0.884 -2.063,-0.412 -1.474,1.002 -4.187,2.654 -7.96,2.654 -4.717,0 -8.668,-2.595 -8.668,-6.959 0,-9.965 20.638,-7.311 20.638,-20.636 0,-6.368 -4.718,-11.38 -12.618,-11.38 -6.075,0 -10.437,2.947 -12.148,4.362 C -0.411,-1.473 -0.589,-0.825 0,0" /></g><g
           transform="translate(389.0494,127.7362)"
           id="g68"><path
             id="path70"
             style="fill:#2a2031;fill-opacity:1;fill-rule:nonzero;stroke:none"
             d="m 0,0 v 1.35 c 0,0.655 -0.53,1.185 -1.185,1.185 h -35.12 c -0.382,0 -0.74,-0.184 -0.963,-0.494 l -13.841,-19.315 c -0.296,-0.413 -0.296,-0.968 0,-1.38 l 13.841,-19.315 c 0.223,-0.31 0.581,-0.495 0.963,-0.495 h 35.12 c 0.655,0 1.185,0.531 1.185,1.185 v 1.351 c 0,0.654 -0.53,1.184 -1.185,1.184 h -33.21 c -0.382,0 -0.74,0.184 -0.963,0.495 l -11.175,15.595 c -0.296,0.412 -0.296,0.967 0,1.38 l 11.175,15.595 c 0.223,0.31 0.581,0.494 0.963,0.494 h 33.21 C -0.53,-1.185 0,-0.654 0,0" /></g></g></g></g></svg>